{
  "accessors": [
    {
      "bufferView": 2,
      "componentType": 5126,
      "count": 9209,
      "max": [
        495.29214477539062,
        2813.688720703125,
        2943.32666015625
      ],
      "min": [
        -495.171875,
        -9.2817306518554688,
        -2992.43115234375
      ],
      "type": "VEC3"
    },
    {
      "bufferView": 2,
      "byteOffset": 110508,
      "componentType": 5126,
      "count": 9209,
      "max": [
        0.9991534948348999,
        1,
        1
      ],
      "min": [
        -0.99990689754486084,
        -1,
        -1
      ],
      "type": "VEC3"
    },
    {
      "bufferView": 3,
      "componentType": 5126,
      "count": 9209,
      "max": [
        1,
        0.99998235702514648,
        1,
        1
      ],
      "min": [
        -1,
        -0.9999995231628418,
        -1,
        -1
      ],
      "type": "VEC4"
    },
    {
      "bufferView": 1,
      "componentType": 5126,
      "count": 9209,
      "max": [
        0.99947023391723633,
        0.99947160482406616
      ],
      "min": [
        0.000529771379660815,
        0.00052840274292975664
      ],
      "type": "VEC2"
    },
    {
      "bufferView": 0,
      "componentType": 5125,
      "count": 32124,
      "max": [
        9208
      ],
      "min": [
        0
      ],
      "type": "SCALAR"
    }
  ],
  "asset": {
    "extras": {
      "author": "Gunnar Correa (https://sketchfab.com/gunnarcorrea)",
      "license": "CC-BY-4.0 (http://creativecommons.org/licenses/by/4.0/)",
      "source": "https://sketchfab.com/3d-models/metal-fence-8512357bf8b14a3ca6823ed8b543c577",
      "title": "Metal Fence"
    },
    "generator": "Sketchfab-7.27.0",
    "version": "2.0"
  },
  "bufferViews": [
    {
      "buffer": 0,
      "byteLength": 128496,
      "byteOffset": 0,
      "name": "floatBufferViews",
      "target": 34963
    },
    {
      "buffer": 0,
      "byteLength": 73672,
      "byteOffset": 128496,
      "byteStride": 8,
      "name": "floatBufferViews",
      "target": 34962
    },
    {
      "buffer": 0,
      "byteLength": 221016,
      "byteOffset": 202168,
      "byteStride": 12,
      "name": "floatBufferViews",
      "target": 34962
    },
    {
      "buffer": 0,
      "byteLength": 147344,
      "byteOffset": 423184,
      "byteStride": 16,
      "name": "floatBufferViews",
      "target": 34962
    }
  ],
  "buffers": [
    {
      "byteLength": 570528,
      "uri": "scene.bin"
    }
  ],
  "images": [
    {
      "uri": "textures/Scene_-_Root_baseColor.png"
    },
    {
      "uri": "textures/Scene_-_Root_metallicRoughness.png"
    },
    {
      "uri": "textures/Scene_-_Root_normal.png"
    }
  ],
  "materials": [
    {
      "doubleSided": true,
      "name": "Scene_-_Root",
      "normalTexture": {
        "index": 2,
        "scale": 1,
        "texCoord": 0
      },
      "pbrMetallicRoughness": {
        "baseColorFactor": [
          1,
          1,
          1,
          1
        ],
        "baseColorTexture": {
          "index": 0,
          "texCoord": 0
        },
        "metallicFactor": 1,
        "metallicRoughnessTexture": {
          "index": 1,
          "texCoord": 0
        },
        "roughnessFactor": 1
      }
    }
  ],
  "meshes": [
    {
      "name": "Fence__0",
      "primitives": [
        {
          "attributes": {
            "NORMAL": 1,
            "POSITION": 0,
            "TANGENT": 2,
            "TEXCOORD_0": 3
          },
          "indices": 4,
          "material": 0,
          "mode": 4
        }
      ]
    }
  ],
  "nodes": [
    {
      "children": [
        1
      ],
      "name": "RootNode (gltf orientation matrix)",
      "rotation": [
        -0.70710678118654746,
        -0,
        -0,
        0.70710678118654757
      ]
    },
    {
      "children": [
        2
      ],
      "name": "RootNode (model correction matrix)"
    },
    {
      "children": [
        3
      ],
      "matrix": [
        1,
        0,
        0,
        0,
        0,
        0,
        1,
        0,
        0,
        -1,
        0,
        0,
        0,
        0,
        0,
        1
      ],
      "name": "de051c0120a84b799c2169e6c583e3b4.fbx"
    },
    {
      "children": [
        4
      ],
      "name": "RootNode"
    },
    {
      "children": [
        5
      ],
      "matrix": [
        -0.011888414473070978,
        1.4559108731383439e-18,
        0.083036008422518667,
        0,
        2.0441650384525914e-17,
        0.083882734179496765,
        1.4559108731383439e-18,
        0,
        -0.083036008422518667,
        2.0441650384525914e-17,
        -0.011888414473070978,
        0,
        -1.6514512300491333,
        -119.60196685791016,
        1.7136335372924805e-05,
        1
      ],
      "name": "Fence"
    },
    {
      "mesh": 0,
      "name": "Fence__0"
    }
  ],
  "samplers": [
    {
      "magFilter": 9729,
      "minFilter": 9987,
      "wrapS": 10497,
      "wrapT": 10497
    }
  ],
  "scene": 0,
  "scenes": [
    {
      "name": "OSG_Scene",
      "nodes": [
        0
      ]
    }
  ],
  "textures": [
    {
      "sampler": 0,
      "source": 0
    },
    {
      "sampler": 0,
      "source": 1
    },
    {
      "sampler": 0,
      "source": 2
    }
  ]
}

