{
  "accessors": [
    {
      "bufferView": 1,
      "componentType": 5126,
      "count": 694,
      "max": [
        42.944416046142578,
        80.698844909667969,
        205.10400390625
      ],
      "min": [
        -64.445610046386719,
        -65.390945434570312,
        -205.10400390625
      ],
      "type": "VEC3"
    },
    {
      "bufferView": 1,
      "byteOffset": 8328,
      "componentType": 5126,
      "count": 694,
      "max": [
        0.99712777137756348,
        0.99830269813537598,
        1
      ],
      "min": [
        -0.99938511848449707,
        -0.99966925382614136,
        -1
      ],
      "type": "VEC3"
    },
    {
      "bufferView": 0,
      "componentType": 5125,
      "count": 1788,
      "max": [
        693
      ],
      "min": [
        0
      ],
      "type": "SCALAR"
    }
  ],
  "asset": {
    "extras": {
      "author": "FLAREMEDIA (https://sketchfab.com/flaremedia)",
      "license": "CC-BY-4.0 (http://creativecommons.org/licenses/by/4.0/)",
      "source": "https://sketchfab.com/models/06b6d911f5154f3e8dd1ba50855bfe19",
      "title": "Lowpoly Dead Tree"
    },
    "generator": "Sketchfab-3.18.2",
    "version": "2.0"
  },
  "bufferViews": [
    {
      "buffer": 0,
      "byteLength": 7152,
      "byteOffset": 0,
      "name": "floatBufferViews",
      "target": 34963
    },
    {
      "buffer": 0,
      "byteLength": 16656,
      "byteOffset": 7152,
      "byteStride": 12,
      "name": "floatBufferViews",
      "target": 34962
    }
  ],
  "buffers": [
    {
      "byteLength": 23808,
      "uri": "scene.bin"
    }
  ],
  "materials": [
    {
      "doubleSided": false,
      "emissiveFactor": [
        0,
        0,
        0
      ],
      "name": "Mat_3",
      "pbrMetallicRoughness": {
        "baseColorFactor": [
          0.44046417290000001,
          0.44046417290000001,
          0.44046417290000001,
          1
        ],
        "metallicFactor": 0,
        "roughnessFactor": 1
      }
    }
  ],
  "meshes": [
    {
      "primitives": [
        {
          "attributes": {
            "NORMAL": 1,
            "POSITION": 0
          },
          "indices": 2,
          "material": 0,
          "mode": 4
        }
      ]
    }
  ],
  "nodes": [
    {
      "children": [
        1
      ],
      "name": "RootNode (gltf orientation matrix)",
      "rotation": [
        -0.70710678118654746,
        -0,
        -0,
        0.70710678118654757
      ]
    },
    {
      "children": [
        2
      ],
      "name": "RootNode (model correction matrix)"
    },
    {
      "children": [
        3
      ],
      "name": "0bb1c5463ad34c9d80b6edc44c398fae.obj.cleaner"
    },
    {
      "mesh": 0,
      "name": ""
    }
  ],
  "scene": 0,
  "scenes": [
    {
      "name": "OSG_Scene",
      "nodes": [
        0
      ]
    }
  ]
}

