{
  "accessors": [
    {
      "bufferView": 2,
      "componentType": 5126,
      "count": 2800,
      "max": [
        14.787745475769043,
        5.0028700828552246,
        4.4328899383544922
      ],
      "min": [
        -12.283879280090332,
        -26.115886688232422,
        -1.6516830921173096
      ],
      "type": "VEC3"
    },
    {
      "bufferView": 2,
      "byteOffset": 33600,
      "componentType": 5126,
      "count": 2800,
      "max": [
        0.99995923042297363,
        0.99996912479400635,
        0.99993062019348145
      ],
      "min": [
        -0.99964463710784912,
        -0.99998569488525391,
        -0.99993062019348145
      ],
      "type": "VEC3"
    },
    {
      "bufferView": 1,
      "componentType": 5126,
      "count": 2800,
      "max": [
        0.99987739324569702,
        0.75211435556411743
      ],
      "min": [
        0.00012259301729500294,
        0.00012259301729500294
      ],
      "type": "VEC2"
    },
    {
      "bufferView": 1,
      "byteOffset": 22400,
      "componentType": 5126,
      "count": 2800,
      "max": [
        0.99987739324569702,
        0.75211435556411743
      ],
      "min": [
        0.00012259301729500294,
        0.00012259301729500294
      ],
      "type": "VEC2"
    },
    {
      "bufferView": 0,
      "componentType": 5125,
      "count": 12600,
      "max": [
        2799
      ],
      "min": [
        0
      ],
      "type": "SCALAR"
    },
    {
      "bufferView": 2,
      "byteOffset": 67200,
      "componentType": 5126,
      "count": 898,
      "max": [
        5.6823010444641113,
        2.4288787841796875,
        3.7705073356628418
      ],
      "min": [
        -43.081329345703125,
        -3.7874479293823242,
        -6.6638188362121582
      ],
      "type": "VEC3"
    },
    {
      "bufferView": 2,
      "byteOffset": 77976,
      "componentType": 5126,
      "count": 898,
      "max": [
        0.46050229668617249,
        0.99978792667388916,
        0.99838936328887939
      ],
      "min": [
        -0.91769742965698242,
        -0.99722743034362793,
        -0.99726402759552002
      ],
      "type": "VEC3"
    },
    {
      "bufferView": 1,
      "byteOffset": 44800,
      "componentType": 5126,
      "count": 898,
      "max": [
        1,
        1
      ],
      "min": [
        0,
        0
      ],
      "type": "VEC2"
    },
    {
      "bufferView": 0,
      "byteOffset": 50400,
      "componentType": 5125,
      "count": 1374,
      "max": [
        897
      ],
      "min": [
        0
      ],
      "type": "SCALAR"
    },
    {
      "bufferView": 2,
      "byteOffset": 88752,
      "componentType": 5126,
      "count": 996,
      "max": [
        3.5859174728393555,
        4.6574382781982422,
        9.4824581146240234
      ],
      "min": [
        -3.8150238990783691,
        -11.756650924682617,
        -9.4824581146240234
      ],
      "type": "VEC3"
    },
    {
      "bufferView": 2,
      "byteOffset": 100704,
      "componentType": 5126,
      "count": 996,
      "max": [
        1,
        1,
        1
      ],
      "min": [
        -1,
        -1,
        -1
      ],
      "type": "VEC3"
    },
    {
      "bufferView": 3,
      "componentType": 5126,
      "count": 996,
      "max": [
        1,
        1,
        1,
        1
      ],
      "min": [
        -1,
        -1,
        -1,
        1
      ],
      "type": "VEC4"
    },
    {
      "bufferView": 1,
      "byteOffset": 51984,
      "componentType": 5126,
      "count": 996,
      "max": [
        0.99930578470230103,
        0.96714192628860474
      ],
      "min": [
        0.00069416308542713523,
        0.00069416308542713523
      ],
      "type": "VEC2"
    },
    {
      "bufferView": 1,
      "byteOffset": 59952,
      "componentType": 5126,
      "count": 996,
      "max": [
        0.99930578470230103,
        0.96714192628860474
      ],
      "min": [
        0.00069416308542713523,
        0.00069416308542713523
      ],
      "type": "VEC2"
    },
    {
      "bufferView": 0,
      "byteOffset": 55896,
      "componentType": 5125,
      "count": 2016,
      "max": [
        995
      ],
      "min": [
        0
      ],
      "type": "SCALAR"
    },
    {
      "bufferView": 2,
      "byteOffset": 112656,
      "componentType": 5126,
      "count": 9684,
      "max": [
        1.8915953636169434,
        2.5347075462341309,
        0.64931595325469971
      ],
      "min": [
        -2.6303174495697021,
        -2.6827292442321777,
        -3.6477406024932861
      ],
      "type": "VEC3"
    },
    {
      "bufferView": 2,
      "byteOffset": 228864,
      "componentType": 5126,
      "count": 9684,
      "max": [
        0.99988645315170288,
        0.99486857652664185,
        0.99965691566467285
      ],
      "min": [
        -0.99963223934173584,
        -0.99619251489639282,
        -0.99967300891876221
      ],
      "type": "VEC3"
    },
    {
      "bufferView": 1,
      "byteOffset": 67920,
      "componentType": 5126,
      "count": 9684,
      "max": [
        0.99982106685638428,
        0.99932491779327393
      ],
      "min": [
        0.00037024982157163322,
        0.00069571862695738673
      ],
      "type": "VEC2"
    },
    {
      "bufferView": 0,
      "byteOffset": 63960,
      "componentType": 5125,
      "count": 16038,
      "max": [
        9683
      ],
      "min": [
        0
      ],
      "type": "SCALAR"
    },
    {
      "bufferView": 2,
      "byteOffset": 345072,
      "componentType": 5126,
      "count": 502,
      "max": [
        0.20265688002109528,
        1.5190577507019043,
        4.681605339050293
      ],
      "min": [
        -0.20265641808509827,
        -1.5190577507019043,
        -9.2168502807617188
      ],
      "type": "VEC3"
    },
    {
      "bufferView": 2,
      "byteOffset": 351096,
      "componentType": 5126,
      "count": 502,
      "max": [
        1,
        0.99999654293060303,
        1
      ],
      "min": [
        -1,
        -0.99999654293060303,
        -1
      ],
      "type": "VEC3"
    },
    {
      "bufferView": 3,
      "byteOffset": 15936,
      "componentType": 5126,
      "count": 502,
      "max": [
        1,
        1,
        0.99986881017684937,
        1
      ],
      "min": [
        -1,
        -1,
        -0.9999576210975647,
        1
      ],
      "type": "VEC4"
    },
    {
      "bufferView": 1,
      "byteOffset": 145392,
      "componentType": 5126,
      "count": 502,
      "max": [
        1.0005320310592651,
        0.99057245254516602
      ],
      "min": [
        0.0078016072511672974,
        0.0004045926034450531
      ],
      "type": "VEC2"
    },
    {
      "bufferView": 1,
      "byteOffset": 149408,
      "componentType": 5126,
      "count": 502,
      "max": [
        1.0005320310592651,
        0.99057245254516602
      ],
      "min": [
        0.0078016072511672974,
        0.0004045926034450531
      ],
      "type": "VEC2"
    },
    {
      "bufferView": 0,
      "byteOffset": 128112,
      "componentType": 5125,
      "count": 1056,
      "max": [
        501
      ],
      "min": [
        0
      ],
      "type": "SCALAR"
    },
    {
      "bufferView": 2,
      "byteOffset": 357120,
      "componentType": 5126,
      "count": 181,
      "max": [
        0.80887079238891602,
        18.172155380249023,
        1.0270781517028809
      ],
      "min": [
        -0.78928345441818237,
        -0.79950559139251709,
        -0.80352199077606201
      ],
      "type": "VEC3"
    },
    {
      "bufferView": 2,
      "byteOffset": 359292,
      "componentType": 5126,
      "count": 181,
      "max": [
        1,
        0.94856017827987671,
        0.060824736952781677
      ],
      "min": [
        -1,
        -1,
        -0.0086980005726218224
      ],
      "type": "VEC3"
    },
    {
      "bufferView": 3,
      "byteOffset": 23968,
      "componentType": 5126,
      "count": 181,
      "max": [
        1,
        1,
        0.99991142749786377,
        1
      ],
      "min": [
        -0.94980728626251221,
        -1,
        -0.99995177984237671,
        -1
      ],
      "type": "VEC4"
    },
    {
      "bufferView": 1,
      "byteOffset": 153424,
      "componentType": 5126,
      "count": 181,
      "max": [
        0.99847561120986938,
        0.99209582805633545
      ],
      "min": [
        0.0089233322069048882,
        0.0078775165602564812
      ],
      "type": "VEC2"
    },
    {
      "bufferView": 1,
      "byteOffset": 154872,
      "componentType": 5126,
      "count": 181,
      "max": [
        0.99847561120986938,
        0.99209582805633545
      ],
      "min": [
        0.0089233322069048882,
        0.0078775165602564812
      ],
      "type": "VEC2"
    },
    {
      "bufferView": 0,
      "byteOffset": 132336,
      "componentType": 5125,
      "count": 663,
      "max": [
        180
      ],
      "min": [
        0
      ],
      "type": "SCALAR"
    }
  ],
  "asset": {
    "extras": {
      "author": "Cyril43 (https://sketchfab.com/Cyril43)",
      "license": "CC-BY-4.0 (http://creativecommons.org/licenses/by/4.0/)",
      "source": "https://sketchfab.com/3d-models/grave-48bcc5929e194e87a41d8a3e1cea95d2",
      "title": "grave"
    },
    "generator": "Sketchfab-8.33.0",
    "version": "2.0"
  },
  "bufferViews": [
    {
      "buffer": 0,
      "byteLength": 134988,
      "byteOffset": 0,
      "name": "floatBufferViews",
      "target": 34963
    },
    {
      "buffer": 0,
      "byteLength": 156320,
      "byteOffset": 134988,
      "byteStride": 8,
      "name": "floatBufferViews",
      "target": 34962
    },
    {
      "buffer": 0,
      "byteLength": 361464,
      "byteOffset": 291308,
      "byteStride": 12,
      "name": "floatBufferViews",
      "target": 34962
    },
    {
      "buffer": 0,
      "byteLength": 26864,
      "byteOffset": 652772,
      "byteStride": 16,
      "name": "floatBufferViews",
      "target": 34962
    }
  ],
  "buffers": [
    {
      "byteLength": 679636,
      "uri": "scene.bin"
    }
  ],
  "images": [
    {
      "uri": "textures/chain_baseColor.jpeg"
    },
    {
      "uri": "textures/garve_baseColor.jpeg"
    },
    {
      "uri": "textures/garve_metallicRoughness.png"
    },
    {
      "uri": "textures/garve_normal.png"
    },
    {
      "uri": "textures/stone_baseColor.png"
    },
    {
      "uri": "textures/sword_baseColor.jpeg"
    },
    {
      "uri": "textures/sword_metallicRoughness.png"
    },
    {
      "uri": "textures/sword_normal.png"
    },
    {
      "uri": "textures/wrap_baseColor.png"
    },
    {
      "uri": "textures/wrap_normal.png"
    }
  ],
  "materials": [
    {
      "doubleSided": true,
      "emissiveFactor": [
        0,
        0,
        0
      ],
      "name": "chain",
      "pbrMetallicRoughness": {
        "baseColorFactor": [
          1,
          1,
          1,
          1
        ],
        "baseColorTexture": {
          "index": 0,
          "texCoord": 0
        },
        "metallicFactor": 0,
        "roughnessFactor": 0.77997221360864355
      }
    },
    {
      "doubleSided": true,
      "emissiveFactor": [
        0,
        0,
        0
      ],
      "name": "grass",
      "pbrMetallicRoughness": {
        "baseColorFactor": [
          0.053573780633981286,
          0.04024372225568907,
          0.0018457288319452085,
          1
        ],
        "metallicFactor": 0,
        "roughnessFactor": 0.82111456180001685
      }
    },
    {
      "doubleSided": true,
      "emissiveFactor": [
        0,
        0,
        0
      ],
      "name": "garve",
      "normalTexture": {
        "index": 3,
        "scale": 1,
        "texCoord": 0
      },
      "occlusionTexture": {
        "index": 2,
        "strength": 1,
        "texCoord": 0
      },
      "pbrMetallicRoughness": {
        "baseColorFactor": [
          1,
          1,
          1,
          1
        ],
        "baseColorTexture": {
          "index": 1,
          "texCoord": 0
        },
        "metallicFactor": 0,
        "metallicRoughnessTexture": {
          "index": 2,
          "texCoord": 0
        },
        "roughnessFactor": 1
      }
    },
    {
      "doubleSided": true,
      "emissiveFactor": [
        0,
        0,
        0
      ],
      "name": "stone",
      "pbrMetallicRoughness": {
        "baseColorFactor": [
          1,
          1,
          1,
          1
        ],
        "baseColorTexture": {
          "index": 4,
          "texCoord": 0
        },
        "metallicFactor": 0,
        "roughnessFactor": 1
      }
    },
    {
      "doubleSided": true,
      "emissiveFactor": [
        0,
        0,
        0
      ],
      "name": "sword",
      "normalTexture": {
        "index": 7,
        "scale": 1,
        "texCoord": 0
      },
      "pbrMetallicRoughness": {
        "baseColorFactor": [
          1,
          1,
          1,
          1
        ],
        "baseColorTexture": {
          "index": 5,
          "texCoord": 0
        },
        "metallicFactor": 0,
        "metallicRoughnessTexture": {
          "index": 6,
          "texCoord": 0
        },
        "roughnessFactor": 1
      }
    },
    {
      "alphaMode": "BLEND",
      "doubleSided": true,
      "emissiveFactor": [
        0,
        0,
        0
      ],
      "name": "wrap",
      "normalTexture": {
        "index": 9,
        "scale": 1,
        "texCoord": 0
      },
      "pbrMetallicRoughness": {
        "baseColorFactor": [
          0.19028566855800069,
          0.0039609974982524393,
          0.0039609974982524393,
          1
        ],
        "baseColorTexture": {
          "index": 8,
          "texCoord": 0
        },
        "metallicFactor": 0,
        "roughnessFactor": 0.56108597972870267
      }
    }
  ],
  "meshes": [
    {
      "name": "chain_chain_0",
      "primitives": [
        {
          "attributes": {
            "NORMAL": 1,
            "POSITION": 0,
            "TEXCOORD_0": 2,
            "TEXCOORD_1": 3
          },
          "indices": 4,
          "material": 0,
          "mode": 4
        }
      ]
    },
    {
      "name": "grass_grass_0",
      "primitives": [
        {
          "attributes": {
            "NORMAL": 6,
            "POSITION": 5,
            "TEXCOORD_0": 7
          },
          "indices": 8,
          "material": 1,
          "mode": 4
        }
      ]
    },
    {
      "name": "grave_low_garve_0",
      "primitives": [
        {
          "attributes": {
            "NORMAL": 10,
            "POSITION": 9,
            "TANGENT": 11,
            "TEXCOORD_0": 12,
            "TEXCOORD_1": 13
          },
          "indices": 14,
          "material": 2,
          "mode": 4
        }
      ]
    },
    {
      "name": "stone_stone_0",
      "primitives": [
        {
          "attributes": {
            "NORMAL": 16,
            "POSITION": 15,
            "TEXCOORD_0": 17
          },
          "indices": 18,
          "material": 3,
          "mode": 4
        }
      ]
    },
    {
      "name": "sword_sword_0",
      "primitives": [
        {
          "attributes": {
            "NORMAL": 20,
            "POSITION": 19,
            "TANGENT": 21,
            "TEXCOORD_0": 22,
            "TEXCOORD_1": 23
          },
          "indices": 24,
          "material": 4,
          "mode": 4
        }
      ]
    },
    {
      "name": "wrap_wrap_0",
      "primitives": [
        {
          "attributes": {
            "NORMAL": 26,
            "POSITION": 25,
            "TANGENT": 27,
            "TEXCOORD_0": 28,
            "TEXCOORD_1": 29
          },
          "indices": 30,
          "material": 5,
          "mode": 4
        }
      ]
    }
  ],
  "nodes": [
    {
      "children": [
        1
      ],
      "name": "RootNode (gltf orientation matrix)",
      "rotation": [
        -0.70710678118654746,
        -0,
        -0,
        0.70710678118654757
      ]
    },
    {
      "children": [
        2
      ],
      "name": "RootNode (model correction matrix)"
    },
    {
      "children": [
        3
      ],
      "matrix": [
        1,
        0,
        0,
        0,
        0,
        0,
        1,
        0,
        0,
        -1,
        0,
        0,
        0,
        0,
        0,
        1
      ],
      "name": "f74c01088a194126bbd8737867f8a108.fbx"
    },
    {
      "children": [
        4,
        6,
        8,
        10,
        12,
        14
      ],
      "name": "RootNode"
    },
    {
      "children": [
        5
      ],
      "matrix": [
        2.6012126989839737,
        -6.9966647008393075,
        6.8336921173460938,
        0,
        1.2346240626458083,
        8.9546734391620788,
        8.6982741903490339,
        0,
        -15.877051055600008,
        -1.8457631609071492,
        4.1537430113604028,
        0,
        203.62545776367188,
        928.75482177734375,
        620.11370849609375,
        1
      ],
      "name": "chain"
    },
    {
      "mesh": 0,
      "name": "chain_chain_0"
    },
    {
      "children": [
        7
      ],
      "matrix": [
        -24.700404728963651,
        -11.142617505961839,
        7.9431150289998449,
        0,
        -46.175667527556215,
        132.32075589553321,
        42.029089754351048,
        0,
        -60.009586452009124,
        26.516449936730474,
        -149.41221540774049,
        0,
        -526.2689208984375,
        50.858997344970703,
        -7.8052101135253906,
        1
      ],
      "name": "grass"
    },
    {
      "mesh": 1,
      "name": "grass_grass_0"
    },
    {
      "children": [
        9
      ],
      "matrix": [
        51.992393125569222,
        13.415689070047618,
        -4.2070566563724148,
        0,
        -28.071378300462396,
        99.049821514154004,
        -31.061271328180418,
        0,
        -1.2133703572710046e-06,
        14.271401765895577,
        45.50940033311656,
        0,
        -695.78363037109375,
        1182.6121826171875,
        -513.166015625,
        1
      ],
      "name": "grave_low"
    },
    {
      "mesh": 2,
      "name": "grave_low_garve_0"
    },
    {
      "children": [
        11
      ],
      "matrix": [
        435.10233715599657,
        -55.647373868551838,
        -48.422677885511398,
        0,
        -60.920822138279412,
        -123.07695725974972,
        -405.96438480893943,
        0,
        19.109428170926734,
        206.34704668450749,
        -65.426253420556435,
        0,
        173.49807739257812,
        227.55728149414062,
        -250.57293701171875,
        1
      ],
      "name": "stone"
    },
    {
      "mesh": 3,
      "name": "stone_stone_0"
    },
    {
      "children": [
        13
      ],
      "matrix": [
        112.19330042463953,
        -3.8972236967710945,
        -2.6748786526162407,
        0,
        -1.3098318986604116,
        35.424254712055912,
        -106.55085543327365,
        0,
        4.541769932411178,
        106.48763649034382,
        35.347404657332973,
        0,
        171.30412292480469,
        985.28326416015625,
        591.0479736328125,
        1
      ],
      "name": "sword"
    },
    {
      "mesh": 4,
      "name": "sword_sword_0"
    },
    {
      "children": [
        15
      ],
      "matrix": [
        24.709021448234648,
        -0.85830957416898424,
        -0.58910499779186853,
        0,
        -0.28847243144001988,
        7.8017040959136974,
        -23.466358064943876,
        0,
        5.253976653613198,
        123.18623892110963,
        40.890322847518618,
        0,
        186.55032348632812,
        1325.6597900390625,
        704.4083251953125,
        1
      ],
      "name": "wrap"
    },
    {
      "mesh": 5,
      "name": "wrap_wrap_0"
    }
  ],
  "samplers": [
    {
      "magFilter": 9729,
      "minFilter": 9987,
      "wrapS": 10497,
      "wrapT": 10497
    }
  ],
  "scene": 0,
  "scenes": [
    {
      "name": "OSG_Scene",
      "nodes": [
        0
      ]
    }
  ],
  "textures": [
    {
      "sampler": 0,
      "source": 0
    },
    {
      "sampler": 0,
      "source": 1
    },
    {
      "sampler": 0,
      "source": 2
    },
    {
      "sampler": 0,
      "source": 3
    },
    {
      "sampler": 0,
      "source": 4
    },
    {
      "sampler": 0,
      "source": 5
    },
    {
      "sampler": 0,
      "source": 6
    },
    {
      "sampler": 0,
      "source": 7
    },
    {
      "sampler": 0,
      "source": 8
    },
    {
      "sampler": 0,
      "source": 9
    }
  ]
}

